<svg xmlns="http://www.w3.org/2000/svg" xmlns:xlink="http://www.w3.org/1999/xlink" width="500" zoomAndPan="magnify" viewBox="0 0 375 74.999997" height="100" preserveAspectRatio="xMidYMid meet" version="1.0"><defs><g/></defs><g fill="#2e3192" fill-opacity="1"><g transform="translate(4.370028, 50.993265)"><g><path d="M 31.984375 -38.03125 L 31.984375 -13.5 C 31.984375 -8.832031 30.722656 -5.300781 28.203125 -2.90625 C 25.679688 -0.507812 21.992188 0.6875 17.140625 0.6875 C 12.285156 0.6875 8.597656 -0.507812 6.078125 -2.90625 C 3.554688 -5.300781 2.296875 -8.832031 2.296875 -13.5 L 2.296875 -38.03125 L 10.96875 -38.03125 L 10.96875 -16.046875 C 10.96875 -12.972656 11.453125 -10.832031 12.421875 -9.625 C 13.390625 -8.425781 14.960938 -7.828125 17.140625 -7.828125 C 19.328125 -7.828125 20.90625 -8.425781 21.875 -9.625 C 22.84375 -10.832031 23.328125 -12.972656 23.328125 -16.046875 L 23.328125 -38.03125 Z M 31.984375 -38.03125 "/></g></g></g><g fill="#2e3192" fill-opacity="1"><g transform="translate(38.667266, 50.993265)"><g><path d="M 0.375 -30.421875 L 0.375 -38.03125 L 27.109375 -38.03125 L 27.109375 -30.421875 L 18.0625 -30.421875 L 18.0625 0 L 9.40625 0 L 9.40625 -30.421875 Z M 0.375 -30.421875 "/></g></g></g><g fill="#2e3192" fill-opacity="1"><g transform="translate(66.141935, 50.993265)"><g><path d="M 24.515625 -38.03125 L 24.515625 -30.421875 L 11.4375 -30.421875 L 11.4375 -22.859375 L 23.96875 -22.859375 L 23.96875 -15.25 L 11.4375 -15.25 L 11.4375 -7.609375 L 24.515625 -7.609375 L 24.515625 0 L 2.765625 0 L 2.765625 -38.03125 Z M 24.515625 -38.03125 "/></g></g></g><g fill="#000000" fill-opacity="1"><g transform="translate(92.886158, 50.993265)"><g><path d="M 11.4375 -38.03125 L 11.4375 0 L 2.765625 0 L 2.765625 -38.03125 Z M 11.4375 -38.03125 "/></g></g></g><g fill="#000000" fill-opacity="1"><g transform="translate(107.084477, 50.993265)"><g><path d="M 11.4375 -23.59375 L 11.4375 0 L 2.765625 0 L 2.765625 -38.03125 L 11.4375 -38.03125 L 26.546875 -14.421875 L 26.640625 -14.421875 L 26.640625 -38.03125 L 35.3125 -38.03125 L 35.3125 0 L 26.640625 0 L 11.515625 -23.59375 Z M 11.4375 -23.59375 "/></g></g></g><g fill="#000000" fill-opacity="1"><g transform="translate(145.161794, 50.993265)"><g><path d="M 0.375 -30.421875 L 0.375 -38.03125 L 27.109375 -38.03125 L 27.109375 -30.421875 L 18.0625 -30.421875 L 18.0625 0 L 9.40625 0 L 9.40625 -30.421875 Z M 0.375 -30.421875 "/></g></g></g><g fill="#000000" fill-opacity="1"><g transform="translate(172.636463, 50.993265)"><g><path d="M 24.515625 -38.03125 L 24.515625 -30.421875 L 11.4375 -30.421875 L 11.4375 -22.859375 L 23.96875 -22.859375 L 23.96875 -15.25 L 11.4375 -15.25 L 11.4375 -7.609375 L 24.515625 -7.609375 L 24.515625 0 L 2.765625 0 L 2.765625 -38.03125 Z M 24.515625 -38.03125 "/></g></g></g><g fill="#000000" fill-opacity="1"><g transform="translate(199.373557, 50.993265)"><g><path d="M 2.765625 -38.03125 L 16.359375 -38.03125 C 20.015625 -38.03125 22.992188 -37.050781 25.296875 -35.09375 C 27.609375 -33.144531 28.765625 -30.359375 28.765625 -26.734375 C 28.765625 -23.941406 28.0625 -21.597656 26.65625 -19.703125 C 25.257812 -17.816406 23.363281 -16.488281 20.96875 -15.71875 L 34.0625 0 L 23.046875 0 L 11.4375 -15.03125 L 11.4375 0 L 2.765625 0 Z M 11.4375 -21.15625 L 12.4375 -21.15625 C 13.238281 -21.15625 13.914062 -21.171875 14.46875 -21.203125 C 15.019531 -21.234375 15.648438 -21.335938 16.359375 -21.515625 C 17.066406 -21.703125 17.632812 -21.960938 18.0625 -22.296875 C 18.5 -22.640625 18.867188 -23.132812 19.171875 -23.78125 C 19.484375 -24.425781 19.640625 -25.207031 19.640625 -26.125 C 19.640625 -27.050781 19.484375 -27.835938 19.171875 -28.484375 C 18.867188 -29.128906 18.5 -29.617188 18.0625 -29.953125 C 17.632812 -30.296875 17.066406 -30.554688 16.359375 -30.734375 C 15.648438 -30.921875 15.019531 -31.03125 14.46875 -31.0625 C 13.914062 -31.09375 13.238281 -31.109375 12.4375 -31.109375 L 11.4375 -31.109375 Z M 11.4375 -21.15625 "/></g></g></g><g fill="#000000" fill-opacity="1"><g transform="translate(232.380039, 50.993265)"><g><path d="M 11.4375 -23.59375 L 11.4375 0 L 2.765625 0 L 2.765625 -38.03125 L 11.4375 -38.03125 L 26.546875 -14.421875 L 26.640625 -14.421875 L 26.640625 -38.03125 L 35.3125 -38.03125 L 35.3125 0 L 26.640625 0 L 11.515625 -23.59375 Z M 11.4375 -23.59375 "/></g></g></g><g fill="#ed1b24" fill-opacity="1"><g transform="translate(270.46594, 50.993265)"><g><path d="M 11.4375 -15.25 L 11.4375 0 L 2.765625 0 L 2.765625 -38.03125 L 11.4375 -38.03125 L 11.4375 -22.859375 L 23.6875 -22.859375 L 23.6875 -38.03125 L 32.359375 -38.03125 L 32.359375 0 L 23.6875 0 L 23.6875 -15.25 Z M 11.4375 -15.25 "/></g></g></g><g fill="#ed1b24" fill-opacity="1"><g transform="translate(305.592957, 50.993265)"><g><path d="M 31.984375 -38.03125 L 31.984375 -13.5 C 31.984375 -8.832031 30.722656 -5.300781 28.203125 -2.90625 C 25.679688 -0.507812 21.992188 0.6875 17.140625 0.6875 C 12.285156 0.6875 8.597656 -0.507812 6.078125 -2.90625 C 3.554688 -5.300781 2.296875 -8.832031 2.296875 -13.5 L 2.296875 -38.03125 L 10.96875 -38.03125 L 10.96875 -16.046875 C 10.96875 -12.972656 11.453125 -10.832031 12.421875 -9.625 C 13.390625 -8.425781 14.960938 -7.828125 17.140625 -7.828125 C 19.328125 -7.828125 20.90625 -8.425781 21.875 -9.625 C 22.84375 -10.832031 23.328125 -12.972656 23.328125 -16.046875 L 23.328125 -38.03125 Z M 31.984375 -38.03125 "/></g></g></g><g fill="#ed1b24" fill-opacity="1"><g transform="translate(339.890195, 50.993265)"><g><path d="M 2.765625 -38.03125 L 14.5625 -38.03125 C 18.125 -38.03125 20.960938 -37.269531 23.078125 -35.75 C 25.203125 -34.226562 26.265625 -31.757812 26.265625 -28.34375 C 26.265625 -24.53125 24.6875 -21.8125 21.53125 -20.1875 C 26.9375 -19.238281 29.640625 -16.039062 29.640625 -10.59375 C 29.640625 -7.40625 28.53125 -4.84375 26.3125 -2.90625 C 24.101562 -0.96875 21.0625 0 17.1875 0 L 2.765625 0 Z M 11.4375 -23.140625 L 12.125 -23.140625 C 14.0625 -23.140625 15.503906 -23.476562 16.453125 -24.15625 C 17.410156 -24.832031 17.890625 -25.9375 17.890625 -27.46875 C 17.890625 -30.050781 15.96875 -31.34375 12.125 -31.34375 L 11.4375 -31.34375 Z M 11.4375 -6.6875 L 14.15625 -6.6875 C 18.394531 -6.6875 20.515625 -8.097656 20.515625 -10.921875 C 20.515625 -12.609375 19.984375 -13.820312 18.921875 -14.5625 C 17.859375 -15.300781 16.269531 -15.671875 14.15625 -15.671875 L 11.4375 -15.671875 Z M 11.4375 -6.6875 "/></g></g></g><g fill="#000000" fill-opacity="1"><g transform="translate(41.708199, 69.74378)"><g><path d="M 0.9375 -12.859375 L 4.65625 -12.859375 C 6.445312 -12.859375 7.972656 -12.242188 9.234375 -11.015625 C 10.503906 -9.796875 11.140625 -8.269531 11.140625 -6.4375 C 11.140625 -4.582031 10.507812 -3.046875 9.25 -1.828125 C 7.988281 -0.609375 6.457031 0 4.65625 0 L 0.9375 0 Z M 3.859375 -2.609375 L 4.3125 -2.609375 C 5.382812 -2.609375 6.257812 -2.96875 6.9375 -3.6875 C 7.613281 -4.414062 7.957031 -5.328125 7.96875 -6.421875 C 7.96875 -7.503906 7.628906 -8.410156 6.953125 -9.140625 C 6.273438 -9.867188 5.394531 -10.234375 4.3125 -10.234375 L 3.859375 -10.234375 Z M 3.859375 -2.609375 "/></g></g></g><g fill="#000000" fill-opacity="1"><g transform="translate(53.201819, 69.74378)"><g><path d="M 3.859375 -12.859375 L 3.859375 0 L 0.9375 0 L 0.9375 -12.859375 Z M 3.859375 -12.859375 "/></g></g></g><g fill="#000000" fill-opacity="1"><g transform="translate(57.998611, 69.74378)"><g><path d="M 5.671875 -13.078125 C 6.367188 -13.078125 7.046875 -12.976562 7.703125 -12.78125 C 8.367188 -12.582031 8.863281 -12.382812 9.1875 -12.1875 L 9.65625 -11.875 L 8.46875 -9.53125 C 8.375 -9.59375 8.242188 -9.671875 8.078125 -9.765625 C 7.910156 -9.867188 7.597656 -10.003906 7.140625 -10.171875 C 6.691406 -10.335938 6.269531 -10.421875 5.875 -10.421875 C 5.382812 -10.421875 5.003906 -10.316406 4.734375 -10.109375 C 4.472656 -9.898438 4.34375 -9.617188 4.34375 -9.265625 C 4.34375 -9.085938 4.40625 -8.921875 4.53125 -8.765625 C 4.65625 -8.617188 4.867188 -8.457031 5.171875 -8.28125 C 5.472656 -8.113281 5.738281 -7.976562 5.96875 -7.875 C 6.195312 -7.78125 6.550781 -7.628906 7.03125 -7.421875 C 7.851562 -7.066406 8.554688 -6.582031 9.140625 -5.96875 C 9.734375 -5.363281 10.03125 -4.675781 10.03125 -3.90625 C 10.03125 -3.164062 9.894531 -2.519531 9.625 -1.96875 C 9.363281 -1.425781 9 -1 8.53125 -0.6875 C 8.070312 -0.375 7.5625 -0.144531 7 0 C 6.445312 0.15625 5.84375 0.234375 5.1875 0.234375 C 4.625 0.234375 4.070312 0.175781 3.53125 0.0625 C 2.988281 -0.0507812 2.535156 -0.191406 2.171875 -0.359375 C 1.816406 -0.535156 1.492188 -0.707031 1.203125 -0.875 C 0.910156 -1.039062 0.695312 -1.179688 0.5625 -1.296875 L 0.359375 -1.46875 L 1.828125 -3.921875 C 1.953125 -3.816406 2.117188 -3.679688 2.328125 -3.515625 C 2.546875 -3.359375 2.929688 -3.144531 3.484375 -2.875 C 4.046875 -2.613281 4.539062 -2.484375 4.96875 -2.484375 C 6.207031 -2.484375 6.828125 -2.898438 6.828125 -3.734375 C 6.828125 -3.910156 6.78125 -4.070312 6.6875 -4.21875 C 6.601562 -4.375 6.445312 -4.523438 6.21875 -4.671875 C 6 -4.828125 5.800781 -4.945312 5.625 -5.03125 C 5.457031 -5.125 5.175781 -5.257812 4.78125 -5.4375 C 4.394531 -5.625 4.109375 -5.765625 3.921875 -5.859375 C 3.140625 -6.242188 2.535156 -6.722656 2.109375 -7.296875 C 1.691406 -7.867188 1.484375 -8.488281 1.484375 -9.15625 C 1.484375 -10.3125 1.90625 -11.253906 2.75 -11.984375 C 3.601562 -12.710938 4.578125 -13.078125 5.671875 -13.078125 Z M 5.671875 -13.078125 "/></g></g></g><g fill="#000000" fill-opacity="1"><g transform="translate(68.464349, 69.74378)"><g><path d="M 7.78125 -2.640625 C 8.21875 -2.640625 8.644531 -2.707031 9.0625 -2.84375 C 9.488281 -2.976562 9.800781 -3.109375 10 -3.234375 L 10.296875 -3.4375 L 11.546875 -0.953125 C 11.503906 -0.921875 11.445312 -0.878906 11.375 -0.828125 C 11.300781 -0.773438 11.128906 -0.675781 10.859375 -0.53125 C 10.597656 -0.394531 10.316406 -0.273438 10.015625 -0.171875 C 9.710938 -0.0664062 9.316406 0.0234375 8.828125 0.109375 C 8.335938 0.191406 7.835938 0.234375 7.328125 0.234375 C 6.128906 0.234375 4.992188 -0.0546875 3.921875 -0.640625 C 2.859375 -1.234375 2 -2.039062 1.34375 -3.0625 C 0.6875 -4.09375 0.359375 -5.207031 0.359375 -6.40625 C 0.359375 -7.3125 0.550781 -8.175781 0.9375 -9 C 1.320312 -9.832031 1.832031 -10.546875 2.46875 -11.140625 C 3.101562 -11.734375 3.847656 -12.203125 4.703125 -12.546875 C 5.554688 -12.898438 6.429688 -13.078125 7.328125 -13.078125 C 8.148438 -13.078125 8.910156 -12.976562 9.609375 -12.78125 C 10.316406 -12.59375 10.816406 -12.398438 11.109375 -12.203125 L 11.546875 -11.90625 L 10.296875 -9.40625 C 10.222656 -9.46875 10.113281 -9.539062 9.96875 -9.625 C 9.820312 -9.71875 9.53125 -9.835938 9.09375 -9.984375 C 8.65625 -10.128906 8.21875 -10.203125 7.78125 -10.203125 C 7.070312 -10.203125 6.4375 -10.085938 5.875 -9.859375 C 5.3125 -9.628906 4.863281 -9.328125 4.53125 -8.953125 C 4.207031 -8.578125 3.957031 -8.175781 3.78125 -7.75 C 3.613281 -7.320312 3.53125 -6.882812 3.53125 -6.4375 C 3.53125 -5.457031 3.894531 -4.578125 4.625 -3.796875 C 5.363281 -3.023438 6.414062 -2.640625 7.78125 -2.640625 Z M 7.78125 -2.640625 "/></g></g></g><g fill="#000000" fill-opacity="1"><g transform="translate(80.191568, 69.74378)"><g><path d="M 0.359375 -6.4375 C 0.359375 -8.289062 0.988281 -9.859375 2.25 -11.140625 C 3.519531 -12.429688 5.050781 -13.078125 6.84375 -13.078125 C 8.632812 -13.078125 10.15625 -12.4375 11.40625 -11.15625 C 12.664062 -9.875 13.296875 -8.300781 13.296875 -6.4375 C 13.296875 -4.550781 12.675781 -2.96875 11.4375 -1.6875 C 10.207031 -0.40625 8.675781 0.234375 6.84375 0.234375 C 4.957031 0.234375 3.40625 -0.398438 2.1875 -1.671875 C 0.96875 -2.941406 0.359375 -4.53125 0.359375 -6.4375 Z M 3.515625 -6.4375 C 3.515625 -5.757812 3.617188 -5.140625 3.828125 -4.578125 C 4.035156 -4.023438 4.398438 -3.554688 4.921875 -3.171875 C 5.441406 -2.785156 6.082031 -2.59375 6.84375 -2.59375 C 7.925781 -2.59375 8.742188 -2.96875 9.296875 -3.71875 C 9.859375 -4.46875 10.140625 -5.375 10.140625 -6.4375 C 10.140625 -7.476562 9.851562 -8.375 9.28125 -9.125 C 8.71875 -9.882812 7.90625 -10.265625 6.84375 -10.265625 C 5.78125 -10.265625 4.957031 -9.882812 4.375 -9.125 C 3.800781 -8.375 3.515625 -7.476562 3.515625 -6.4375 Z M 3.515625 -6.4375 "/></g></g></g><g fill="#000000" fill-opacity="1"><g transform="translate(93.849969, 69.74378)"><g><path d="M 4.953125 0 L -0.4375 -12.859375 L 2.859375 -12.859375 L 6.109375 -4.40625 L 9.34375 -12.859375 L 12.65625 -12.859375 L 7.265625 0 Z M 4.953125 0 "/></g></g></g><g fill="#000000" fill-opacity="1"><g transform="translate(106.059984, 69.74378)"><g><path d="M 8.28125 -12.859375 L 8.28125 -10.28125 L 3.859375 -10.28125 L 3.859375 -7.734375 L 8.09375 -7.734375 L 8.09375 -5.15625 L 3.859375 -5.15625 L 3.859375 -2.578125 L 8.28125 -2.578125 L 8.28125 0 L 0.9375 0 L 0.9375 -12.859375 Z M 8.28125 -12.859375 "/></g></g></g><g fill="#000000" fill-opacity="1"><g transform="translate(115.092902, 69.74378)"><g><path d="M 0.9375 -12.859375 L 5.53125 -12.859375 C 6.769531 -12.859375 7.773438 -12.523438 8.546875 -11.859375 C 9.328125 -11.203125 9.71875 -10.257812 9.71875 -9.03125 C 9.71875 -8.09375 9.476562 -7.300781 9 -6.65625 C 8.53125 -6.019531 7.894531 -5.570312 7.09375 -5.3125 L 11.515625 0 L 7.78125 0 L 3.859375 -5.078125 L 3.859375 0 L 0.9375 0 Z M 3.859375 -7.15625 L 4.203125 -7.15625 C 4.472656 -7.15625 4.703125 -7.160156 4.890625 -7.171875 C 5.078125 -7.179688 5.289062 -7.21875 5.53125 -7.28125 C 5.769531 -7.34375 5.960938 -7.429688 6.109375 -7.546875 C 6.253906 -7.660156 6.378906 -7.820312 6.484375 -8.03125 C 6.585938 -8.25 6.640625 -8.515625 6.640625 -8.828125 C 6.640625 -9.140625 6.585938 -9.40625 6.484375 -9.625 C 6.378906 -9.84375 6.253906 -10.007812 6.109375 -10.125 C 5.960938 -10.238281 5.769531 -10.328125 5.53125 -10.390625 C 5.289062 -10.453125 5.078125 -10.488281 4.890625 -10.5 C 4.703125 -10.507812 4.472656 -10.515625 4.203125 -10.515625 L 3.859375 -10.515625 Z M 3.859375 -7.15625 "/></g></g></g><g fill="#000000" fill-opacity="1"><g transform="translate(126.243889, 69.74378)"><g/></g></g><g fill="#000000" fill-opacity="1"><g transform="translate(130.495595, 69.74378)"><g><path d="M -0.46875 -12.859375 L 3.046875 -12.859375 L 5.734375 -8.734375 L 8.40625 -12.859375 L 11.9375 -12.859375 L 7.203125 -5.765625 L 7.203125 0 L 4.265625 0 L 4.265625 -5.765625 Z M -0.46875 -12.859375 "/></g></g></g><g fill="#000000" fill-opacity="1"><g transform="translate(141.958069, 69.74378)"><g><path d="M 0.359375 -6.4375 C 0.359375 -8.289062 0.988281 -9.859375 2.25 -11.140625 C 3.519531 -12.429688 5.050781 -13.078125 6.84375 -13.078125 C 8.632812 -13.078125 10.15625 -12.4375 11.40625 -11.15625 C 12.664062 -9.875 13.296875 -8.300781 13.296875 -6.4375 C 13.296875 -4.550781 12.675781 -2.96875 11.4375 -1.6875 C 10.207031 -0.40625 8.675781 0.234375 6.84375 0.234375 C 4.957031 0.234375 3.40625 -0.398438 2.1875 -1.671875 C 0.96875 -2.941406 0.359375 -4.53125 0.359375 -6.4375 Z M 3.515625 -6.4375 C 3.515625 -5.757812 3.617188 -5.140625 3.828125 -4.578125 C 4.035156 -4.023438 4.398438 -3.554688 4.921875 -3.171875 C 5.441406 -2.785156 6.082031 -2.59375 6.84375 -2.59375 C 7.925781 -2.59375 8.742188 -2.96875 9.296875 -3.71875 C 9.859375 -4.46875 10.140625 -5.375 10.140625 -6.4375 C 10.140625 -7.476562 9.851562 -8.375 9.28125 -9.125 C 8.71875 -9.882812 7.90625 -10.265625 6.84375 -10.265625 C 5.78125 -10.265625 4.957031 -9.882812 4.375 -9.125 C 3.800781 -8.375 3.515625 -7.476562 3.515625 -6.4375 Z M 3.515625 -6.4375 "/></g></g></g><g fill="#000000" fill-opacity="1"><g transform="translate(155.61647, 69.74378)"><g><path d="M 10.8125 -12.859375 L 10.8125 -4.5625 C 10.8125 -2.988281 10.382812 -1.796875 9.53125 -0.984375 C 8.675781 -0.171875 7.425781 0.234375 5.78125 0.234375 C 4.144531 0.234375 2.898438 -0.171875 2.046875 -0.984375 C 1.203125 -1.796875 0.78125 -2.988281 0.78125 -4.5625 L 0.78125 -12.859375 L 3.703125 -12.859375 L 3.703125 -5.421875 C 3.703125 -4.378906 3.863281 -3.65625 4.1875 -3.25 C 4.519531 -2.84375 5.054688 -2.640625 5.796875 -2.640625 C 6.535156 -2.640625 7.066406 -2.84375 7.390625 -3.25 C 7.710938 -3.65625 7.875 -4.378906 7.875 -5.421875 L 7.875 -12.859375 Z M 10.8125 -12.859375 "/></g></g></g><g fill="#000000" fill-opacity="1"><g transform="translate(167.203526, 69.74378)"><g><path d="M 0.9375 -12.859375 L 5.53125 -12.859375 C 6.769531 -12.859375 7.773438 -12.523438 8.546875 -11.859375 C 9.328125 -11.203125 9.71875 -10.257812 9.71875 -9.03125 C 9.71875 -8.09375 9.476562 -7.300781 9 -6.65625 C 8.53125 -6.019531 7.894531 -5.570312 7.09375 -5.3125 L 11.515625 0 L 7.78125 0 L 3.859375 -5.078125 L 3.859375 0 L 0.9375 0 Z M 3.859375 -7.15625 L 4.203125 -7.15625 C 4.472656 -7.15625 4.703125 -7.160156 4.890625 -7.171875 C 5.078125 -7.179688 5.289062 -7.21875 5.53125 -7.28125 C 5.769531 -7.34375 5.960938 -7.429688 6.109375 -7.546875 C 6.253906 -7.660156 6.378906 -7.820312 6.484375 -8.03125 C 6.585938 -8.25 6.640625 -8.515625 6.640625 -8.828125 C 6.640625 -9.140625 6.585938 -9.40625 6.484375 -9.625 C 6.378906 -9.84375 6.253906 -10.007812 6.109375 -10.125 C 5.960938 -10.238281 5.769531 -10.328125 5.53125 -10.390625 C 5.289062 -10.453125 5.078125 -10.488281 4.890625 -10.5 C 4.703125 -10.507812 4.472656 -10.515625 4.203125 -10.515625 L 3.859375 -10.515625 Z M 3.859375 -7.15625 "/></g></g></g><g fill="#000000" fill-opacity="1"><g transform="translate(178.354514, 69.74378)"><g/></g></g><g fill="#000000" fill-opacity="1"><g transform="translate(182.606219, 69.74378)"><g><path d="M 0.9375 -12.859375 L 5.625 -12.859375 C 6.9375 -12.859375 7.992188 -12.519531 8.796875 -11.84375 C 9.609375 -11.164062 10.015625 -10.179688 10.015625 -8.890625 C 10.015625 -7.609375 9.601562 -6.597656 8.78125 -5.859375 C 7.96875 -5.128906 6.914062 -4.765625 5.625 -4.765625 L 3.859375 -4.765625 L 3.859375 0 L 0.9375 0 Z M 3.859375 -7.109375 L 4.6875 -7.109375 C 5.34375 -7.109375 5.878906 -7.238281 6.296875 -7.5 C 6.722656 -7.757812 6.9375 -8.191406 6.9375 -8.796875 C 6.9375 -9.410156 6.722656 -9.847656 6.296875 -10.109375 C 5.878906 -10.378906 5.34375 -10.515625 4.6875 -10.515625 L 3.859375 -10.515625 Z M 3.859375 -7.109375 "/></g></g></g><g fill="#000000" fill-opacity="1"><g transform="translate(192.978505, 69.74378)"><g><path d="M 7.46875 -12.859375 L 12.65625 0 L 9.5 0 L 8.546875 -2.578125 L 3.65625 -2.578125 L 2.703125 0 L -0.4375 0 L 4.75 -12.859375 Z M 7.5625 -5.140625 L 6.125 -8.875 L 6.09375 -8.875 L 4.65625 -5.140625 Z M 7.5625 -5.140625 "/></g></g></g><g fill="#000000" fill-opacity="1"><g transform="translate(205.18852, 69.74378)"><g><path d="M 0.125 -10.28125 L 0.125 -12.859375 L 9.15625 -12.859375 L 9.15625 -10.28125 L 6.109375 -10.28125 L 6.109375 0 L 3.171875 0 L 3.171875 -10.28125 Z M 0.125 -10.28125 "/></g></g></g><g fill="#000000" fill-opacity="1"><g transform="translate(214.470633, 69.74378)"><g><path d="M 3.859375 -5.15625 L 3.859375 0 L 0.9375 0 L 0.9375 -12.859375 L 3.859375 -12.859375 L 3.859375 -7.734375 L 8 -7.734375 L 8 -12.859375 L 10.9375 -12.859375 L 10.9375 0 L 8 0 L 8 -5.15625 Z M 3.859375 -5.15625 "/></g></g></g><g fill="#000000" fill-opacity="1"><g transform="translate(226.338031, 69.74378)"><g/></g></g><g fill="#000000" fill-opacity="1"><g transform="translate(230.589736, 69.74378)"><g><path d="M 0.125 -10.28125 L 0.125 -12.859375 L 9.15625 -12.859375 L 9.15625 -10.28125 L 6.109375 -10.28125 L 6.109375 0 L 3.171875 0 L 3.171875 -10.28125 Z M 0.125 -10.28125 "/></g></g></g><g fill="#000000" fill-opacity="1"><g transform="translate(239.871849, 69.74378)"><g><path d="M 0.359375 -6.4375 C 0.359375 -8.289062 0.988281 -9.859375 2.25 -11.140625 C 3.519531 -12.429688 5.050781 -13.078125 6.84375 -13.078125 C 8.632812 -13.078125 10.15625 -12.4375 11.40625 -11.15625 C 12.664062 -9.875 13.296875 -8.300781 13.296875 -6.4375 C 13.296875 -4.550781 12.675781 -2.96875 11.4375 -1.6875 C 10.207031 -0.40625 8.675781 0.234375 6.84375 0.234375 C 4.957031 0.234375 3.40625 -0.398438 2.1875 -1.671875 C 0.96875 -2.941406 0.359375 -4.53125 0.359375 -6.4375 Z M 3.515625 -6.4375 C 3.515625 -5.757812 3.617188 -5.140625 3.828125 -4.578125 C 4.035156 -4.023438 4.398438 -3.554688 4.921875 -3.171875 C 5.441406 -2.785156 6.082031 -2.59375 6.84375 -2.59375 C 7.925781 -2.59375 8.742188 -2.96875 9.296875 -3.71875 C 9.859375 -4.46875 10.140625 -5.375 10.140625 -6.4375 C 10.140625 -7.476562 9.851562 -8.375 9.28125 -9.125 C 8.71875 -9.882812 7.90625 -10.265625 6.84375 -10.265625 C 5.78125 -10.265625 4.957031 -9.882812 4.375 -9.125 C 3.800781 -8.375 3.515625 -7.476562 3.515625 -6.4375 Z M 3.515625 -6.4375 "/></g></g></g><g fill="#000000" fill-opacity="1"><g transform="translate(253.53025, 69.74378)"><g/></g></g><g fill="#000000" fill-opacity="1"><g transform="translate(257.781955, 69.74378)"><g><path d="M 5.671875 -13.078125 C 6.367188 -13.078125 7.046875 -12.976562 7.703125 -12.78125 C 8.367188 -12.582031 8.863281 -12.382812 9.1875 -12.1875 L 9.65625 -11.875 L 8.46875 -9.53125 C 8.375 -9.59375 8.242188 -9.671875 8.078125 -9.765625 C 7.910156 -9.867188 7.597656 -10.003906 7.140625 -10.171875 C 6.691406 -10.335938 6.269531 -10.421875 5.875 -10.421875 C 5.382812 -10.421875 5.003906 -10.316406 4.734375 -10.109375 C 4.472656 -9.898438 4.34375 -9.617188 4.34375 -9.265625 C 4.34375 -9.085938 4.40625 -8.921875 4.53125 -8.765625 C 4.65625 -8.617188 4.867188 -8.457031 5.171875 -8.28125 C 5.472656 -8.113281 5.738281 -7.976562 5.96875 -7.875 C 6.195312 -7.78125 6.550781 -7.628906 7.03125 -7.421875 C 7.851562 -7.066406 8.554688 -6.582031 9.140625 -5.96875 C 9.734375 -5.363281 10.03125 -4.675781 10.03125 -3.90625 C 10.03125 -3.164062 9.894531 -2.519531 9.625 -1.96875 C 9.363281 -1.425781 9 -1 8.53125 -0.6875 C 8.070312 -0.375 7.5625 -0.144531 7 0 C 6.445312 0.15625 5.84375 0.234375 5.1875 0.234375 C 4.625 0.234375 4.070312 0.175781 3.53125 0.0625 C 2.988281 -0.0507812 2.535156 -0.191406 2.171875 -0.359375 C 1.816406 -0.535156 1.492188 -0.707031 1.203125 -0.875 C 0.910156 -1.039062 0.695312 -1.179688 0.5625 -1.296875 L 0.359375 -1.46875 L 1.828125 -3.921875 C 1.953125 -3.816406 2.117188 -3.679688 2.328125 -3.515625 C 2.546875 -3.359375 2.929688 -3.144531 3.484375 -2.875 C 4.046875 -2.613281 4.539062 -2.484375 4.96875 -2.484375 C 6.207031 -2.484375 6.828125 -2.898438 6.828125 -3.734375 C 6.828125 -3.910156 6.78125 -4.070312 6.6875 -4.21875 C 6.601562 -4.375 6.445312 -4.523438 6.21875 -4.671875 C 6 -4.828125 5.800781 -4.945312 5.625 -5.03125 C 5.457031 -5.125 5.175781 -5.257812 4.78125 -5.4375 C 4.394531 -5.625 4.109375 -5.765625 3.921875 -5.859375 C 3.140625 -6.242188 2.535156 -6.722656 2.109375 -7.296875 C 1.691406 -7.867188 1.484375 -8.488281 1.484375 -9.15625 C 1.484375 -10.3125 1.90625 -11.253906 2.75 -11.984375 C 3.601562 -12.710938 4.578125 -13.078125 5.671875 -13.078125 Z M 5.671875 -13.078125 "/></g></g></g><g fill="#000000" fill-opacity="1"><g transform="translate(268.247693, 69.74378)"><g><path d="M 10.8125 -12.859375 L 10.8125 -4.5625 C 10.8125 -2.988281 10.382812 -1.796875 9.53125 -0.984375 C 8.675781 -0.171875 7.425781 0.234375 5.78125 0.234375 C 4.144531 0.234375 2.898438 -0.171875 2.046875 -0.984375 C 1.203125 -1.796875 0.78125 -2.988281 0.78125 -4.5625 L 0.78125 -12.859375 L 3.703125 -12.859375 L 3.703125 -5.421875 C 3.703125 -4.378906 3.863281 -3.65625 4.1875 -3.25 C 4.519531 -2.84375 5.054688 -2.640625 5.796875 -2.640625 C 6.535156 -2.640625 7.066406 -2.84375 7.390625 -3.25 C 7.710938 -3.65625 7.875 -4.378906 7.875 -5.421875 L 7.875 -12.859375 Z M 10.8125 -12.859375 "/></g></g></g><g fill="#000000" fill-opacity="1"><g transform="translate(279.83475, 69.74378)"><g><path d="M 7.78125 -2.640625 C 8.21875 -2.640625 8.644531 -2.707031 9.0625 -2.84375 C 9.488281 -2.976562 9.800781 -3.109375 10 -3.234375 L 10.296875 -3.4375 L 11.546875 -0.953125 C 11.503906 -0.921875 11.445312 -0.878906 11.375 -0.828125 C 11.300781 -0.773438 11.128906 -0.675781 10.859375 -0.53125 C 10.597656 -0.394531 10.316406 -0.273438 10.015625 -0.171875 C 9.710938 -0.0664062 9.316406 0.0234375 8.828125 0.109375 C 8.335938 0.191406 7.835938 0.234375 7.328125 0.234375 C 6.128906 0.234375 4.992188 -0.0546875 3.921875 -0.640625 C 2.859375 -1.234375 2 -2.039062 1.34375 -3.0625 C 0.6875 -4.09375 0.359375 -5.207031 0.359375 -6.40625 C 0.359375 -7.3125 0.550781 -8.175781 0.9375 -9 C 1.320312 -9.832031 1.832031 -10.546875 2.46875 -11.140625 C 3.101562 -11.734375 3.847656 -12.203125 4.703125 -12.546875 C 5.554688 -12.898438 6.429688 -13.078125 7.328125 -13.078125 C 8.148438 -13.078125 8.910156 -12.976562 9.609375 -12.78125 C 10.316406 -12.59375 10.816406 -12.398438 11.109375 -12.203125 L 11.546875 -11.90625 L 10.296875 -9.40625 C 10.222656 -9.46875 10.113281 -9.539062 9.96875 -9.625 C 9.820312 -9.71875 9.53125 -9.835938 9.09375 -9.984375 C 8.65625 -10.128906 8.21875 -10.203125 7.78125 -10.203125 C 7.070312 -10.203125 6.4375 -10.085938 5.875 -9.859375 C 5.3125 -9.628906 4.863281 -9.328125 4.53125 -8.953125 C 4.207031 -8.578125 3.957031 -8.175781 3.78125 -7.75 C 3.613281 -7.320312 3.53125 -6.882812 3.53125 -6.4375 C 3.53125 -5.457031 3.894531 -4.578125 4.625 -3.796875 C 5.363281 -3.023438 6.414062 -2.640625 7.78125 -2.640625 Z M 7.78125 -2.640625 "/></g></g></g><g fill="#000000" fill-opacity="1"><g transform="translate(291.561955, 69.74378)"><g><path d="M 7.78125 -2.640625 C 8.21875 -2.640625 8.644531 -2.707031 9.0625 -2.84375 C 9.488281 -2.976562 9.800781 -3.109375 10 -3.234375 L 10.296875 -3.4375 L 11.546875 -0.953125 C 11.503906 -0.921875 11.445312 -0.878906 11.375 -0.828125 C 11.300781 -0.773438 11.128906 -0.675781 10.859375 -0.53125 C 10.597656 -0.394531 10.316406 -0.273438 10.015625 -0.171875 C 9.710938 -0.0664062 9.316406 0.0234375 8.828125 0.109375 C 8.335938 0.191406 7.835938 0.234375 7.328125 0.234375 C 6.128906 0.234375 4.992188 -0.0546875 3.921875 -0.640625 C 2.859375 -1.234375 2 -2.039062 1.34375 -3.0625 C 0.6875 -4.09375 0.359375 -5.207031 0.359375 -6.40625 C 0.359375 -7.3125 0.550781 -8.175781 0.9375 -9 C 1.320312 -9.832031 1.832031 -10.546875 2.46875 -11.140625 C 3.101562 -11.734375 3.847656 -12.203125 4.703125 -12.546875 C 5.554688 -12.898438 6.429688 -13.078125 7.328125 -13.078125 C 8.148438 -13.078125 8.910156 -12.976562 9.609375 -12.78125 C 10.316406 -12.59375 10.816406 -12.398438 11.109375 -12.203125 L 11.546875 -11.90625 L 10.296875 -9.40625 C 10.222656 -9.46875 10.113281 -9.539062 9.96875 -9.625 C 9.820312 -9.71875 9.53125 -9.835938 9.09375 -9.984375 C 8.65625 -10.128906 8.21875 -10.203125 7.78125 -10.203125 C 7.070312 -10.203125 6.4375 -10.085938 5.875 -9.859375 C 5.3125 -9.628906 4.863281 -9.328125 4.53125 -8.953125 C 4.207031 -8.578125 3.957031 -8.175781 3.78125 -7.75 C 3.613281 -7.320312 3.53125 -6.882812 3.53125 -6.4375 C 3.53125 -5.457031 3.894531 -4.578125 4.625 -3.796875 C 5.363281 -3.023438 6.414062 -2.640625 7.78125 -2.640625 Z M 7.78125 -2.640625 "/></g></g></g><g fill="#000000" fill-opacity="1"><g transform="translate(303.289189, 69.74378)"><g><path d="M 8.28125 -12.859375 L 8.28125 -10.28125 L 3.859375 -10.28125 L 3.859375 -7.734375 L 8.09375 -7.734375 L 8.09375 -5.15625 L 3.859375 -5.15625 L 3.859375 -2.578125 L 8.28125 -2.578125 L 8.28125 0 L 0.9375 0 L 0.9375 -12.859375 Z M 8.28125 -12.859375 "/></g></g></g><g fill="#000000" fill-opacity="1"><g transform="translate(312.322122, 69.74378)"><g><path d="M 5.671875 -13.078125 C 6.367188 -13.078125 7.046875 -12.976562 7.703125 -12.78125 C 8.367188 -12.582031 8.863281 -12.382812 9.1875 -12.1875 L 9.65625 -11.875 L 8.46875 -9.53125 C 8.375 -9.59375 8.242188 -9.671875 8.078125 -9.765625 C 7.910156 -9.867188 7.597656 -10.003906 7.140625 -10.171875 C 6.691406 -10.335938 6.269531 -10.421875 5.875 -10.421875 C 5.382812 -10.421875 5.003906 -10.316406 4.734375 -10.109375 C 4.472656 -9.898438 4.34375 -9.617188 4.34375 -9.265625 C 4.34375 -9.085938 4.40625 -8.921875 4.53125 -8.765625 C 4.65625 -8.617188 4.867188 -8.457031 5.171875 -8.28125 C 5.472656 -8.113281 5.738281 -7.976562 5.96875 -7.875 C 6.195312 -7.78125 6.550781 -7.628906 7.03125 -7.421875 C 7.851562 -7.066406 8.554688 -6.582031 9.140625 -5.96875 C 9.734375 -5.363281 10.03125 -4.675781 10.03125 -3.90625 C 10.03125 -3.164062 9.894531 -2.519531 9.625 -1.96875 C 9.363281 -1.425781 9 -1 8.53125 -0.6875 C 8.070312 -0.375 7.5625 -0.144531 7 0 C 6.445312 0.15625 5.84375 0.234375 5.1875 0.234375 C 4.625 0.234375 4.070312 0.175781 3.53125 0.0625 C 2.988281 -0.0507812 2.535156 -0.191406 2.171875 -0.359375 C 1.816406 -0.535156 1.492188 -0.707031 1.203125 -0.875 C 0.910156 -1.039062 0.695312 -1.179688 0.5625 -1.296875 L 0.359375 -1.46875 L 1.828125 -3.921875 C 1.953125 -3.816406 2.117188 -3.679688 2.328125 -3.515625 C 2.546875 -3.359375 2.929688 -3.144531 3.484375 -2.875 C 4.046875 -2.613281 4.539062 -2.484375 4.96875 -2.484375 C 6.207031 -2.484375 6.828125 -2.898438 6.828125 -3.734375 C 6.828125 -3.910156 6.78125 -4.070312 6.6875 -4.21875 C 6.601562 -4.375 6.445312 -4.523438 6.21875 -4.671875 C 6 -4.828125 5.800781 -4.945312 5.625 -5.03125 C 5.457031 -5.125 5.175781 -5.257812 4.78125 -5.4375 C 4.394531 -5.625 4.109375 -5.765625 3.921875 -5.859375 C 3.140625 -6.242188 2.535156 -6.722656 2.109375 -7.296875 C 1.691406 -7.867188 1.484375 -8.488281 1.484375 -9.15625 C 1.484375 -10.3125 1.90625 -11.253906 2.75 -11.984375 C 3.601562 -12.710938 4.578125 -13.078125 5.671875 -13.078125 Z M 5.671875 -13.078125 "/></g></g></g><g fill="#000000" fill-opacity="1"><g transform="translate(322.787845, 69.74378)"><g><path d="M 5.671875 -13.078125 C 6.367188 -13.078125 7.046875 -12.976562 7.703125 -12.78125 C 8.367188 -12.582031 8.863281 -12.382812 9.1875 -12.1875 L 9.65625 -11.875 L 8.46875 -9.53125 C 8.375 -9.59375 8.242188 -9.671875 8.078125 -9.765625 C 7.910156 -9.867188 7.597656 -10.003906 7.140625 -10.171875 C 6.691406 -10.335938 6.269531 -10.421875 5.875 -10.421875 C 5.382812 -10.421875 5.003906 -10.316406 4.734375 -10.109375 C 4.472656 -9.898438 4.34375 -9.617188 4.34375 -9.265625 C 4.34375 -9.085938 4.40625 -8.921875 4.53125 -8.765625 C 4.65625 -8.617188 4.867188 -8.457031 5.171875 -8.28125 C 5.472656 -8.113281 5.738281 -7.976562 5.96875 -7.875 C 6.195312 -7.78125 6.550781 -7.628906 7.03125 -7.421875 C 7.851562 -7.066406 8.554688 -6.582031 9.140625 -5.96875 C 9.734375 -5.363281 10.03125 -4.675781 10.03125 -3.90625 C 10.03125 -3.164062 9.894531 -2.519531 9.625 -1.96875 C 9.363281 -1.425781 9 -1 8.53125 -0.6875 C 8.070312 -0.375 7.5625 -0.144531 7 0 C 6.445312 0.15625 5.84375 0.234375 5.1875 0.234375 C 4.625 0.234375 4.070312 0.175781 3.53125 0.0625 C 2.988281 -0.0507812 2.535156 -0.191406 2.171875 -0.359375 C 1.816406 -0.535156 1.492188 -0.707031 1.203125 -0.875 C 0.910156 -1.039062 0.695312 -1.179688 0.5625 -1.296875 L 0.359375 -1.46875 L 1.828125 -3.921875 C 1.953125 -3.816406 2.117188 -3.679688 2.328125 -3.515625 C 2.546875 -3.359375 2.929688 -3.144531 3.484375 -2.875 C 4.046875 -2.613281 4.539062 -2.484375 4.96875 -2.484375 C 6.207031 -2.484375 6.828125 -2.898438 6.828125 -3.734375 C 6.828125 -3.910156 6.78125 -4.070312 6.6875 -4.21875 C 6.601562 -4.375 6.445312 -4.523438 6.21875 -4.671875 C 6 -4.828125 5.800781 -4.945312 5.625 -5.03125 C 5.457031 -5.125 5.175781 -5.257812 4.78125 -5.4375 C 4.394531 -5.625 4.109375 -5.765625 3.921875 -5.859375 C 3.140625 -6.242188 2.535156 -6.722656 2.109375 -7.296875 C 1.691406 -7.867188 1.484375 -8.488281 1.484375 -9.15625 C 1.484375 -10.3125 1.90625 -11.253906 2.75 -11.984375 C 3.601562 -12.710938 4.578125 -13.078125 5.671875 -13.078125 Z M 5.671875 -13.078125 "/></g></g></g></svg>